<svg id="eHEfgSIhRM11" xmlns="http://www.w3.org/2000/svg" xmlns:xlink="http://www.w3.org/1999/xlink" viewBox="0 0 91.553 28.000004" shape-rendering="geometricPrecision" text-rendering="geometricPrecision" project-id="99425da21011432ba45d680a9f634f8f" export-id="a08d19d10b124963b4be8be05ccdc6bb" cached="false"><g transform="matrix(1.25 0 0 -1.25 -171.041 112.349)"><path d="M138.70464,75.664014c.6992-1.007695,1.91256-1.562944,2.98196-1.562944c2.38564,0,3.51673,1.912572,3.51673,3.681167c0,1.912559-1.33676,3.640034-3.4756,3.640034-1.11053,0-2.50893-.678538-3.02309-1.953595v-3.804662Zm0,7.239033v-1.377944c.74033,1.069449,2.03591,1.62474,3.26988,1.62474c2.96147,0,5.14144-2.385599,5.14144-5.408685c0-2.714755-2.03601-5.36766-5.18256-5.36766-1.21336,0-2.40621.514157-3.22876,1.357336v-6.251849h-1.87148v15.424062h1.87148" paint-order="stroke fill markers" fill="#fff" stroke="#fff" stroke-width="0" stroke-linecap="round" stroke-linejoin="round"/><path d="M151.16761,81.196179c.61686,1.110581,1.54235,1.953664,2.65292,1.953664.4319,0,.71983-.04113,1.11059-.1234l-.34963-1.994838c-.3085.143964-.57585.205706-.96661.205706-1.04875,0-1.80971-.617032-2.44727-1.727559v-6.88946h-1.87148v10.282754h1.87148v-1.706869" paint-order="stroke fill markers" fill="#fff" stroke="#fff" stroke-width="0" stroke-linecap="round" stroke-linejoin="round"/><path d="M157.78984,78.789932h5.84056c-.0823,1.460155-1.1927,2.755875-2.73518,2.755875-1.66587,0-2.73519-1.2134-3.10538-2.755875Zm-.14397-1.501232c.12347-1.768595,1.33668-3.31107,3.31105-3.31107c1.35723,0,2.44726.493537,3.06424,1.665763l1.35724-.863731c-1.02817-1.645209-2.42669-2.406164-4.50374-2.406164-3.26991,0-5.10019,2.385653-5.10019,5.388118c0,3.064327,2.2416,5.388227,5.10019,5.388227c2.71461,0,4.68898-2.036026,4.68898-4.791695c0-.349627-.0412-.802196-.0824-1.069448h-7.83536" paint-order="stroke fill markers" fill="#fff" stroke="#fff" stroke-width="0" stroke-linecap="round" stroke-linejoin="round"/><path d="M175.39434,72.373498c-4.29808,0-7.73266,2.899811-7.73266,7.44475c0,4.257079,3.47556,7.444724,7.73266,7.444724c1.41908,0,2.73518-.411327,3.86633-1.110582l-.92548-1.521771c-.86365.534587-1.8714.863648-2.94085.863648-3.24935,0-5.6349-2.385557-5.6349-5.676019c0-3.496111,2.34443-5.676087,5.6349-5.676087c1.13116,0,2.18004.329006,3.18765,1.007694l1.04888-1.460113c-1.23384-.843109-2.69405-1.316244-4.23653-1.316244" paint-order="stroke fill markers" fill="#fff" stroke="#fff" stroke-width="0" stroke-linecap="round" stroke-linejoin="round"/><path d="M182.24306,72.620294h1.97437v14.395881h-1.97437v-14.395881Z" paint-order="stroke fill markers" fill="#fff" stroke="#fff" stroke-width="0" stroke-linecap="round" stroke-linejoin="round"/><path d="M194.58931,72.373498c-4.29809,0-7.73253,2.899811-7.73253,7.44475c0,4.257079,3.47544,7.444724,7.73253,7.444724c1.41907,0,2.73519-.411327,3.86632-1.110582l-.92548-1.521771c-.86364.534587-1.87138.863648-2.94084.863648-3.24934,0-5.6349-2.385557-5.6349-5.676019c0-3.496111,2.34442-5.676087,5.6349-5.676087c1.13115,0,2.18003.329006,3.18764,1.007694l1.04888-1.460113c-1.23384-.843109-2.69418-1.316244-4.23652-1.316244" paint-order="stroke fill markers" fill="#fff" stroke="#fff" stroke-width="0" stroke-linecap="round" stroke-linejoin="round"/><path d="M201.43803,72.620294v14.395881h8.63772v-1.768704h-6.66334v-4.318696h6.66334v-1.768595h-6.66334v-4.771223h6.66334v-1.768663h-8.63772" paint-order="stroke fill markers" fill="#fff" stroke="#fff" stroke-width="0" stroke-linecap="round" stroke-linejoin="round"/><text dx="0" dy="0" font-family="sans-serif" font-size="18.5104" font-weight="400" transform="matrix(1 0 0 -1 135.2058 72.562134)" fill-opacity="0" stroke-width="0.462756"><tspan x="0" y="0" font-family="sans-serif" font-size="18.5104" font-weight="400" font-style="normal" fill-opacity="0" stroke-width="0.462756"><![CDATA[
preCICE
]]></tspan></text></g></svg>
